<svg xmlns="http://www.w3.org/2000/svg" viewBox="0 0 300 59.98"><defs><style>.cls-1{fill:#fff;}</style></defs><g id="Layer_1" data-name="Layer 1"><path class="cls-1" d="M51.49,44.9H32.66l2.67-10.51h22l3.1-12.2H24.6l-.68,2.65c5.95,0,10.74.4,10.74.88s-4.88.88-10.9.88h-.29l-1.8,7.08c3.56.07,6.28.43,6.28.87s-2.95.82-6.72.87l-4.05,15.9c4.17,0,7.42.42,7.42.87s-3.48.85-7.86.88l-3.6,14.12c7.28,0,13.13.4,13.13.89s-6,.88-13.41.88h-.17l-2.11,8.3H24.42L29.55,57.1H48.39Z" transform="translate(0.51 -18.3)"/><path class="cls-1" d="M86.49,33.88c-6.49,0-13.56,3-18.9,8.61,3.13,0,5.63.4,5.63.88s-2.63.88-5.87.88l-1.3,0a30.43,30.43,0,0,0-6,11.85,22.26,22.26,0,0,0-.28,11.12h1.69c10.19,0,8.39,1.28,8.39,1.77s1.8,0-8.39,0H60.37c2.35,6,8.06,9.33,14.82,9.33,10.62,0,22.83-8.14,26.41-22.2S97.11,33.88,86.49,33.88Zm1,22.2c-1.64,6.44-4.61,10.5-9.28,10.5s-5.56-4.06-3.92-10.5,4.6-10.5,9.27-10.5S89.08,49.64,87.44,56.08Z" transform="translate(0.51 -18.3)"/><path class="cls-1" d="M134.77,33.88A25.86,25.86,0,0,0,120,39h.21c7.4,0,10.06.39,10.06.88s-2.66.88-10.06.88h-2.42a29.92,29.92,0,0,0-5.92,7.08c2.82.07,5,.43,5,.87s-2.62.89-5.86.89h-.1a31.52,31.52,0,0,0-2.49,6.54c-1.31,5.14-1,9.48.31,12.92,1.77,0,3.66,0,5.63,0,9.72,0,7.54.39,7.54.88s2.18.88-7.54.88c-1.68,0-3.3,0-4.84,0,2.7,4.91,7.93,7.59,14,7.59,10.63,0,22.84-8.14,26.42-22.2S145.4,33.88,134.77,33.88Zm.95,22.2c-1.64,6.44-4.6,10.5-9.27,10.5s-5.57-4.06-3.93-10.5,4.61-10.5,9.28-10.5S137.36,49.64,135.72,56.08Z" transform="translate(0.51 -18.3)"/><path class="cls-1" d="M187.81,33.88a18.66,18.66,0,0,0-11.14,4.24h-.32l.54-1.64c-1.28.4-6.89.7-13.66.71l-2.7,10.59h.72c5.09,0,9.22.4,9.22.88s-4.13.89-9.22.89h-1.17L156,65.44h1c4.63,0,8.39.39,8.39.88s-3.76.88-8.39.88h-1.46L153,77.26h10.78l2.29-4.58h.32c2.19,3.73,5.34,5.6,9,5.6,8.78,0,19.26-8.31,23-23C201.67,42.36,197.55,33.88,187.81,33.88Zm-3.67,21.69c-2.07,8.13-5.66,10.85-9,10.85a6.19,6.19,0,0,1-4.95-2l4-15.59c2.5-2.2,4.4-3,6.58-3C184.63,45.74,185.91,48.62,184.14,55.57Z" transform="translate(0.51 -18.3)"/><path class="cls-1" d="M178.38,32l3.5-13.72H168l-.77,3c5.48,0,9.9.4,9.9.88s-4.5.89-10.06.89h-.29l-3.15,12.36c6.81,0,12.33.34,13.33.75Z" transform="translate(0.51 -18.3)"/><path class="cls-1" d="M246.25,54.39C249.14,43,245,33.88,232.31,33.88A24.12,24.12,0,0,0,224,35.44c9.51.05,16.89.42,16.89.87s-8.64.88-19.29.88h-1.44a29.94,29.94,0,0,0-14.58,18.89c-.2.79-.36,1.55-.49,2.31l1.42,0c4.17,0,7.55.39,7.55.88s-3.38.88-7.55.88c-.56,0-1.11,0-1.64,0a18.16,18.16,0,0,0,1,8.85h.63c7.88,0,14.26.39,14.26.88s-6.27.87-14,.88c2.84,4.89,8.47,7.56,15.73,7.56a37.56,37.56,0,0,0,17.35-4.92l-2.31-8.64c-4,1.7-7.08,2.54-10.3,2.54-5.85,0-8.86-2-8.88-6.77h25.81A46.34,46.34,0,0,0,246.25,54.39ZM230,44.9c3.76,0,5.27,2.15,4.85,6.1h-14C222.94,46.87,226.05,44.9,230,44.9Z" transform="translate(0.51 -18.3)"/><path class="cls-1" d="M292.27,33.88c-6,0-12.61,3-18.24,10h-.32l1.24-9H263.6l-1,4.07c3.82,0,6.82.41,6.82.87s-3.23.86-7.27.88l-1.8,7.06H261c7.4,0,13.41.4,13.41.88s-6,.89-13.41.89h-1.14L256.73,61.9h.08c3.25,0,5.87.39,5.87.88s-2.62.88-5.87.88h-.53L254,72.49c3.9,0,7,.41,7,.88s-3.32.87-7.42.88l-.77,3h13.84l5.35-21c4.79-7.12,10.35-9.66,14.94-9.66a17.74,17.74,0,0,1,6.7,1.19l5.84-12.2A13.24,13.24,0,0,0,292.27,33.88Z" transform="translate(0.51 -18.3)"/></g><g id="Layer_3" data-name="Layer 3"><ellipse class="cls-1" cx="24.31" cy="8.31" rx="10.9" ry="0.88"/><ellipse class="cls-1" cx="20.96" cy="17.13" rx="7.54" ry="0.88"/><ellipse class="cls-1" cx="16.77" cy="34.78" rx="8.38" ry="0.88"/><ellipse class="cls-1" cx="13.41" cy="50.66" rx="13.41" ry="0.88"/><ellipse class="cls-1" cx="67.9" cy="25.95" rx="5.87" ry="0.88"/><ellipse class="cls-1" cx="62.04" cy="50.66" rx="18.44" ry="0.88"/><ellipse class="cls-1" cx="111.5" cy="31.25" rx="5.87" ry="0.88"/><ellipse class="cls-1" cx="120.72" cy="22.43" rx="13.41" ry="0.88"/><ellipse class="cls-1" cx="114.85" cy="52.43" rx="17.6" ry="0.88"/><ellipse class="cls-1" cx="167.67" cy="4.78" rx="10.06" ry="0.88"/><ellipse class="cls-1" cx="163.47" cy="18.9" rx="14.25" ry="0.88"/><ellipse class="cls-1" cx="157.61" cy="48.9" rx="8.38" ry="0.88"/><ellipse class="cls-1" cx="161.8" cy="31.25" rx="9.22" ry="0.88"/><ellipse class="cls-1" cx="207.07" cy="52.43" rx="14.25" ry="0.88"/><ellipse class="cls-1" cx="222.16" cy="18.9" rx="19.28" ry="0.88"/><ellipse class="cls-1" cx="207.07" cy="41.84" rx="7.54" ry="0.88"/><ellipse class="cls-1" cx="261.56" cy="31.25" rx="13.41" ry="0.88"/><ellipse class="cls-1" cx="254.01" cy="55.95" rx="7.54" ry="0.88"/><ellipse class="cls-1" cx="262.4" cy="22.43" rx="7.54" ry="0.88"/><ellipse class="cls-1" cx="257.37" cy="45.37" rx="5.87" ry="0.88"/></g></svg>